<svg width="140" height="150" viewBox="0 0 140 150" fill="none" xmlns="http://www.w3.org/2000/svg">
<path d="M70 0L139.5 34.6154V50H0.5V34.6154L70 0ZM100.889 57.6923H131.778V119.231H100.889V57.6923ZM0.5 150V126.923H139.5V150H0.5ZM54.5556 57.6923H85.4444V119.231H54.5556V57.6923ZM8.22222 57.6923H39.1111V119.231H8.22222V57.6923ZM8.22222 134.615V142.308H131.778V134.615H8.22222ZM15.9444 65.3846V111.538H31.3889V65.3846H15.9444ZM62.2778 65.3846V111.538H77.7222V65.3846H62.2778ZM108.611 65.3846V111.538H124.056V65.3846H108.611ZM8.22222 42.3077H131.778V39.2308L70 8.30769L8.22222 39.2308V42.3077Z" fill="#2A313C"/>
</svg>
