<?xml version="1.0" encoding="UTF-8" standalone="no"?><!DOCTYPE svg PUBLIC "-//W3C//DTD SVG 1.1//EN" "http://www.w3.org/Graphics/SVG/1.1/DTD/svg11.dtd"><svg width="100%" height="100%" viewBox="0 0 953 953" version="1.1" xmlns="http://www.w3.org/2000/svg" xmlns:xlink="http://www.w3.org/1999/xlink" xml:space="preserve" xmlns:serif="http://www.serif.com/" style="fill-rule:evenodd;clip-rule:evenodd;stroke-linejoin:round;stroke-miterlimit:2;"><g><g><g><path d="M476.297,-0c-263.045,-0 -476.297,213.252 -476.297,476.297c0,263.05 213.252,476.291 476.297,476.291c263.05,0 476.291,-213.241 476.291,-476.291c-0,-128.859 -51.173,-245.77 -134.307,-331.514c-86.569,-89.289 -207.796,-144.783 -341.984,-144.783Zm-0,853.367c-208.255,0 -377.07,-168.821 -377.07,-377.065c-0,-208.254 168.815,-377.07 377.07,-377.07c208.249,0 377.064,168.821 377.064,377.07c0,208.244 -168.815,377.065 -377.064,377.065Z" style="fill:#cf97f4;fill-rule:nonzero;"/><rect x="50" y="256.907" width="852.344" height="601.29" style="fill-opacity:0;"/></g></g><path d="M702.38,389.579c-1.524,-5.926 -0.169,-13.376 6.603,-15.238c5.588,-1.524 11.683,2.878 16.255,5.248c3.894,2.032 8.127,3.556 12.191,5.588c10.328,4.91 19.471,12.529 25.736,22.18c1.354,2.032 2.54,4.403 2.878,6.773c0.339,2.54 -0.508,5.249 -2.709,6.604c-2.201,1.354 -5.249,1.015 -7.45,-0.339c-2.37,-1.185 -4.233,-3.217 -6.265,-4.741c-8.465,-6.603 -19.81,-7.45 -29.63,-11.683c-3.725,-1.524 -7.111,-3.556 -10.667,-5.757c-1.693,-1.016 -3.386,-2.031 -4.572,-3.725c-1.354,-1.354 -2.031,-3.047 -2.37,-4.91Zm147.814,98.712c-0,0 -4.402,3.387 -9.482,8.974l-216.049,-124.618c-16.593,-9.651 -37.25,-9.651 -53.843,0l-457.665,264.136c-15.069,-21.334 -60.615,-11.345 -60.615,-11.345l-0,55.706c0.169,5.079 2.709,9.989 7.619,12.868l262.95,151.877c21.165,12.191 47.239,12.191 68.573,0l497.963,-287.5c6.095,-3.556 9.312,-9.651 9.482,-15.916l-0,-55.706l-48.933,1.524Z" style="fill:#5e17eb;fill-rule:nonzero;"/><path d="M185.623,750.225c-1.693,-1.693 -2.709,-3.894 -2.709,-6.434l0,-11.683c0,-3.047 3.386,-5.079 6.096,-3.555l17.101,9.82l8.635,16.593c-5.08,-0.169 -28.615,-4.233 -29.123,-4.741Zm80.765,-78.732c-14.731,-8.466 -45.039,-10.667 -59.939,-2.202c-8.974,5.249 -14.561,22.012 -6.603,25.398c1.185,-4.402 4.741,-8.635 10.498,-12.021c14.73,-8.466 38.943,-8.466 53.842,-0c5.927,3.386 9.313,7.619 10.498,12.021c7.958,-3.386 0.677,-17.948 -8.296,-23.196Zm582.79,-177.445l-437.516,260.072l-277.681,-156.619l438.871,-253.638c14.392,-8.296 35.049,-10.836 49.441,-2.539l226.885,133.93c7.281,4.233 7.281,14.73 0,18.794Zm-523.021,167.794l-126.311,-72.976l-16.763,9.651l126.311,72.976l16.763,-9.651Zm325.258,-119.539l-163.391,-94.479c-13.884,0.678 -27.768,0.339 -41.483,-1.693l185.572,107.178l19.302,-11.006Zm14.9,-55.536l-86.521,-49.948c-7.619,2.032 -15.408,2.878 -23.196,3.725c-2.371,0.338 -4.911,0.508 -7.281,0.846l97.865,56.383l19.133,-11.006Z" style="fill:#bba9bf;fill-rule:nonzero;"/><path d="M248.779,571.087l-15.239,8.636l3.725,2.201c0.339,0.169 0.339,0.338 0.339,0.338c-0,0.17 -0,0.17 -0.17,0.339c-0.169,0.169 -0.338,0.169 -0.508,0.169c-0.169,0 -0.508,-0.169 -0.677,-0.169l-8.635,-5.08c-0.339,-0.169 -0.339,-0.338 -0.339,-0.338c0,-0.169 0,-0.169 0.17,-0.339c0.169,-0.169 0.338,-0.169 0.508,-0.169c0.169,-0 0.508,0.169 0.677,0.169l3.725,2.201l13.715,-7.788l-4.741,-1.524c-0.17,-0 -0.339,-0.169 -0.508,-0.169c-0.17,-0 -0.17,-0.17 -0.17,-0.339c0,-0.169 0,-0.169 0.17,-0.339c0.169,0 0.338,-0.169 0.508,-0.169c0.169,-0 0.338,-0 0.677,0.169l6.773,2.201Zm13.714,15.916l-2.709,1.524c-2.37,1.355 -4.741,2.032 -7.111,2.201c-1.863,0.17 -3.556,-0.169 -4.91,-1.016c-0.678,-0.338 -1.186,-0.846 -1.524,-1.354c-0.339,-0.508 -0.508,-1.016 -0.339,-1.524c0,-0.339 0.17,-0.677 0.508,-1.185c0.339,-0.508 0.677,-1.016 1.016,-1.355c0.508,-0.508 1.355,-1.016 2.201,-1.693l2.709,-1.524c2.371,-1.354 4.741,-2.032 7.112,-2.201c1.862,-0.169 3.555,0.169 4.91,1.016c0.677,0.339 1.185,0.846 1.524,1.354c0.338,0.508 0.508,1.016 0.338,1.524c0,0.339 -0.169,0.678 -0.508,1.185c-0.338,0.508 -0.677,1.016 -1.016,1.355c-0.338,0.677 -1.185,1.185 -2.201,1.693Zm-1.185,-0.508c1.016,-0.508 1.863,-1.185 2.371,-1.862c0.508,-0.677 1.015,-1.185 1.015,-1.693c0,-0.339 0,-0.678 -0.169,-1.016c-0.169,-0.508 -0.677,-0.847 -1.185,-1.186c-1.185,-0.677 -2.878,-0.846 -4.741,-0.677c-1.862,0.339 -3.725,0.847 -5.418,1.863l-2.371,1.354c-1.015,0.508 -1.862,1.185 -2.37,1.863c-0.508,0.677 -1.016,1.185 -1.016,1.862c0,0.339 0,0.678 0.169,0.847c0.17,0.508 0.678,0.846 1.186,1.185c1.185,0.677 2.878,0.847 4.74,0.677c1.863,-0.338 3.725,-0.846 5.419,-1.862l2.37,-1.355Zm16.593,9.651c-1.524,0.17 -2.878,0.339 -4.233,0.17c-1.354,-0.17 -2.37,-0.508 -3.217,-1.016c-0.677,-0.508 -1.354,-1.016 -1.524,-1.693c-0.338,-0.678 -0.169,-1.355 0.17,-2.032c0.338,-0.677 1.016,-1.355 2.032,-1.863c1.354,-0.677 2.878,-1.185 4.91,-1.354c1.862,-0.17 3.555,0.169 4.91,1.016c1.016,0.508 1.524,1.354 1.862,2.031c0.17,0.847 0,1.694 -0.677,2.54c-0.846,1.185 -2.37,2.371 -4.233,3.387c-1.524,0.846 -3.048,1.523 -4.571,1.693c-1.016,0.169 -2.201,0.338 -3.387,0.338c-1.185,0 -2.539,-0.169 -3.725,-0.338c-1.693,-0.339 -3.047,-0.847 -4.233,-1.524c-0.846,-0.508 -1.354,-0.847 -1.523,-1.355c-0.17,-0.169 -0,-0.338 0.169,-0.508c0.169,0 0.338,-0.169 0.508,-0.169c0.169,0 0.338,0 0.508,0.169c0.169,0 0.169,0.17 0.338,0.339c0.17,0.339 0.508,0.508 1.016,0.847c1.863,1.016 4.064,1.693 6.773,1.693c2.709,-0 4.91,-0.508 6.942,-1.693c-0,-0 0.508,-0.17 1.185,-0.678Zm1.524,-1.185c1.185,-1.185 1.863,-2.201 1.863,-3.048c-0,-0.677 -0.508,-1.354 -1.524,-1.862c-1.016,-0.508 -2.201,-0.847 -3.556,-0.847c-1.524,0 -2.878,0.339 -4.064,1.016c-1.185,0.678 -1.693,1.355 -1.862,2.201c-0.169,0.847 0.339,1.524 1.185,2.032c0.508,0.339 1.185,0.508 1.863,0.677c0.846,0.17 1.693,0.17 2.709,0.17c0.677,0.169 1.862,-0 3.386,-0.339Zm11.514,9.651c0.508,0.847 0.677,1.524 0.338,2.201c-0.169,0.678 -0.846,1.186 -1.524,1.694c-1.354,0.677 -2.878,1.015 -4.74,1.015c-1.863,0 -3.556,-0.507 -4.911,-1.185c-1.354,-0.846 -2.201,-1.693 -2.201,-2.878c0,-1.016 0.508,-2.032 1.863,-2.709c0.846,-0.508 1.862,-0.847 3.047,-0.847c1.186,-0.169 2.371,0 3.895,0.17c-0.339,-0.678 -0.508,-1.355 -0.339,-1.863c0.169,-0.677 0.677,-1.355 1.524,-1.693c1.185,-0.677 2.709,-1.016 4.402,-1.016c1.863,-0 3.387,0.508 4.741,1.185c1.355,0.847 2.032,1.693 2.032,2.709c-0,1.016 -0.508,1.863 -1.693,2.54c-0.847,0.508 -1.863,0.847 -3.048,0.847c-1.016,0.169 -2.201,-0 -3.386,-0.17Zm-2.371,3.387c1.016,-0.508 1.355,-1.186 1.355,-2.032c-0,-0.847 -0.678,-1.524 -1.693,-2.201c-1.186,-0.678 -2.371,-1.016 -3.895,-1.016c-1.524,-0 -2.709,0.169 -3.555,0.677c-1.016,0.508 -1.355,1.185 -1.355,2.032c0,0.846 0.677,1.524 1.693,2.201c1.185,0.677 2.371,1.016 3.895,1.016c1.354,-0 2.539,-0.169 3.555,-0.677Zm7.45,-4.741c0.847,-0.508 1.355,-1.186 1.355,-2.032c-0,-0.847 -0.508,-1.524 -1.524,-2.032c-1.016,-0.508 -2.201,-0.846 -3.556,-0.846c-1.354,-0 -2.54,0.169 -3.386,0.677c-0.847,0.508 -1.185,1.016 -1.185,1.862c-0,0.847 0.677,1.524 1.693,2.032c1.016,0.677 2.201,0.847 3.555,1.016c1.355,0.169 2.202,-0.169 3.048,-0.677Zm34.71,17.27l0.508,-0.339l-7.958,-4.571l-1.016,0.508c-0.338,0.169 -0.508,0.169 -0.677,0.169c-0.169,0 -0.339,0 -0.508,-0.169c-0.169,-0.169 -0.169,-0.169 -0.169,-0.339c-0,-0.169 0.169,-0.338 0.338,-0.338l2.032,-1.186l10.159,5.926l-1.693,1.016l-18.286,5.419c-0.339,0.169 -0.508,0.169 -0.677,0.169c-0.17,-0 -0.339,-0 -0.508,-0.169c-0.17,-0.17 -0.17,-0.17 -0.17,-0.339c0,-0.169 0,-0.169 0.17,-0.339c-0,0 0.169,-0.169 0.508,-0.169l17.947,-5.249Zm1.355,9.82c1.693,-0.169 3.047,-0.169 4.233,0c1.185,0.17 2.201,0.508 3.047,1.016c1.186,0.678 1.694,1.524 1.694,2.54c-0,1.016 -0.678,2.032 -2.202,2.879c-1.354,0.677 -2.878,1.185 -4.74,1.354c-1.863,0.169 -3.556,-0.169 -5.08,-1.016c-1.016,-0.508 -1.524,-1.185 -1.862,-2.032c-0.339,-0.846 -0,-1.693 0.677,-2.709c0.846,-1.185 2.201,-2.37 4.063,-3.386c1.355,-0.847 2.879,-1.355 4.572,-1.693c1.355,-0.339 2.709,-0.339 4.064,-0.339c1.354,0 2.709,0.169 4.063,0.508c1.355,0.339 2.54,0.677 3.725,1.355c0.677,0.508 1.185,0.846 1.355,1.354c-0,0.17 -0,0.339 -0.17,0.508c-0.169,0.169 -0.338,0.169 -0.508,0.169c-0.169,0 -0.338,0 -0.508,-0.169c-0.169,0 -0.169,-0.169 -0.338,-0.338c-0.169,-0.339 -0.508,-0.678 -1.016,-0.847c-1.693,-1.016 -3.894,-1.524 -6.773,-1.524c-2.878,0 -5.249,0.508 -7.111,1.693c-0.169,0 -0.508,0.17 -1.185,0.677Zm-1.524,1.016c-1.185,1.016 -1.863,2.032 -1.693,2.879c-0,0.846 0.508,1.524 1.524,2.032c1.015,0.508 2.201,0.846 3.555,0.846c1.524,0 2.709,-0.338 3.895,-1.016c1.185,-0.677 1.693,-1.354 1.693,-2.201c-0,-0.846 -0.339,-1.524 -1.355,-2.032c-0.846,-0.508 -2.032,-0.677 -3.555,-0.846c-0.678,-0 -2.202,0.169 -4.064,0.338Zm26.075,3.725l-5.249,3.048c0.847,0.169 1.693,0.508 2.37,0.677c0.678,0.339 1.355,0.508 1.863,0.847c1.354,0.847 2.032,1.693 2.032,2.878c-0,1.016 -0.847,2.032 -2.371,2.879c-1.693,1.016 -3.555,1.524 -5.757,1.524c-2.031,-0 -3.894,-0.508 -5.587,-1.355c-1.016,-0.677 -1.863,-1.355 -2.37,-2.201c-0.339,-0.508 -0.678,-1.185 -0.678,-1.693c0,-0.339 0,-0.508 0.17,-0.678c0.169,-0.169 0.338,-0.169 0.508,-0.169c0.169,0 0.338,0 0.508,0.169c0.169,0.17 0.169,0.17 0.169,0.339c0.169,1.524 1.016,2.709 2.54,3.556c1.354,0.677 2.709,1.185 4.402,1.185c1.693,-0 3.217,-0.339 4.741,-1.185c1.185,-0.677 1.862,-1.524 1.862,-2.371c0,-0.846 -0.508,-1.524 -1.693,-2.201c-1.185,-0.677 -2.54,-1.185 -4.233,-1.524c-0.338,0 -0.677,-0.169 -0.846,-0.169c-0.17,-0.169 -0.17,-0.169 -0.17,-0.339c0,-0.169 0.17,-0.169 0.339,-0.338l7.111,-4.064l7.619,4.402c0.339,0.17 0.339,0.339 0.339,0.339c0,0.169 0,0.169 -0.169,0.339c-0.17,0.169 -0.339,0.169 -0.508,0.169c-0.169,-0 -0.508,-0.169 -0.677,-0.169l-6.265,-3.895Zm10.836,18.287l-7.281,-4.233l1.186,-0.678l16.423,-2.37l2.371,1.355l-10.498,6.095l0.847,0.508c0.338,0.169 0.338,0.339 0.508,0.339c-0,0.169 -0,0.169 -0.17,0.338c-0.169,0.17 -0.338,0.17 -0.508,0.17c-0.169,-0 -0.508,-0.17 -0.677,-0.17l-0.846,-0.508l-3.387,2.032l0.847,0.508c0.338,0.169 0.338,0.339 0.508,0.339c-0,0.169 -0,0.169 -0.17,0.338c-0.169,0.17 -0.338,0.17 -0.507,0.17c-0.17,-0 -0.508,-0.17 -0.678,-0.17l-4.063,-2.37c-0.339,-0.169 -0.339,-0.339 -0.508,-0.339c-0,-0.169 -0,-0.169 0.169,-0.338c0.169,-0.17 0.339,-0.17 0.508,-0.17c0.169,0 0.508,0.17 0.677,0.17l2.032,1.185l3.217,-2.201Zm1.016,-0.678l9.312,-5.418l-0.508,-0.338l-14.899,2.201l6.095,3.555Zm35.557,16.932c0.508,0.847 0.677,1.693 0.508,2.371c-0.17,0.677 -0.847,1.354 -1.694,1.862c-1.354,0.677 -2.878,1.016 -5.079,1.016c-2.201,-0 -3.894,-0.508 -5.418,-1.524c-1.016,-0.508 -1.693,-1.185 -2.371,-2.032c-0.677,-0.846 -0.846,-1.524 -0.846,-1.862c-0,-0.17 -0,-0.339 0.169,-0.339c0.169,0 0.339,-0.169 0.508,-0.169c0.169,-0 0.339,-0 0.508,0.169c0.169,0 0.169,0.17 0.339,0.339c0.338,1.354 1.354,2.54 2.878,3.386c1.355,0.677 2.709,1.185 4.402,1.185c1.693,0 2.879,-0.169 3.895,-0.677c0.677,-0.339 1.015,-0.846 1.185,-1.524c0.169,-0.677 -0,-1.185 -0.339,-1.862c-0.338,-0.678 -1.016,-1.185 -1.862,-1.693c-0.339,-0.17 -0.339,-0.339 -0.339,-0.339c0,-0 0,-0.169 0.169,-0.339c0.17,-0.169 0.339,-0.169 0.508,-0.169c0.17,0 0.508,0 0.678,0.169l0.846,0.508c1.016,0.508 2.032,0.847 3.387,0.847c1.185,-0 2.201,-0.169 3.047,-0.677c0.847,-0.508 1.185,-1.016 1.185,-1.863c0,-0.677 -0.677,-1.354 -1.693,-2.032c-0.677,-0.508 -1.524,-0.846 -2.539,-1.016c-0.847,-0.169 -1.694,-0.338 -2.54,-0.338l-0.678,-0c-0.169,-0 -0.169,-0 -0.338,-0.17c-0.169,-0.169 -0.169,-0.169 -0.169,-0.338c-0,-0.17 -0,-0.17 0.169,-0.339c0.338,-0.169 1.185,-0.169 2.37,0c1.863,0.169 3.387,0.677 4.741,1.524c1.355,0.847 2.201,1.693 2.201,2.709c0,1.016 -0.508,1.863 -1.524,2.371c-0.677,0.338 -1.523,0.677 -2.709,0.846c-1.185,0.339 -2.37,0.339 -3.555,0Zm1.524,9.651l8.465,4.91l0.339,-0.169c0.339,-0.169 0.508,-0.169 0.677,-0.169c0.17,-0 0.339,-0 0.508,0.169c0.17,0.169 0.17,0.169 0.17,0.339c-0,0.169 -0.17,0.338 -0.339,0.338l-1.524,0.847l-10.667,-6.096l1.524,-0.846c4.233,0.169 8.296,0.339 12.529,0.339l4.064,-0c0.847,-0 1.524,-0.17 1.862,-0.17c0.508,-0.169 0.847,-0.338 1.186,-0.508c0.846,-0.508 1.354,-1.185 1.354,-2.032c0,-0.846 -0.677,-1.523 -1.693,-2.201c-1.016,-0.508 -2.032,-0.846 -3.386,-1.016c-1.355,-0.169 -2.371,0 -3.387,0.339c-0.338,0.169 -0.508,0.169 -0.677,0.169c-0.169,0 -0.339,0 -0.508,-0.169c-0.169,-0.169 -0.169,-0.169 -0.169,-0.339c-0,-0.169 -0,-0.169 0.169,-0.338c0.339,-0.17 1.185,-0.339 2.371,-0.508c1.185,-0.17 2.37,-0 3.555,0.169c1.185,0.169 2.201,0.677 3.048,1.016c1.355,0.847 2.032,1.693 2.201,2.878c0,1.186 -0.508,2.032 -1.693,2.71c-0.508,0.338 -1.016,0.507 -1.693,0.677c-0.508,0.169 -1.355,0.169 -2.201,0.338l-4.403,0c-4.571,-0.507 -8.635,-0.507 -11.682,-0.677Zm36.403,3.725l-15.239,8.635l3.725,2.201c0.339,0.17 0.339,0.339 0.339,0.339c-0,0.169 -0,0.169 -0.17,0.339c-0.169,0.169 -0.338,0.169 -0.508,0.169c-0.169,0 -0.507,-0.169 -0.677,-0.169l-8.635,-5.08c-0.339,-0.169 -0.339,-0.338 -0.339,-0.338c0,-0 0,-0.17 0.17,-0.339c0.169,-0.169 0.338,-0.169 0.508,-0.169c0.169,-0 0.508,0.169 0.677,0.169l3.725,2.201l13.715,-7.788l-4.741,-1.524c-0.17,-0 -0.339,-0.17 -0.508,-0.17c-0.17,0 -0.17,-0.169 -0.17,-0.338c0,-0.17 0,-0.17 0.17,-0.339c0.169,0 0.338,-0.169 0.508,-0.169c0.169,-0 0.338,-0 0.677,0.169l6.773,2.201Zm13.714,15.916l-2.709,1.524c-2.37,1.354 -4.741,2.032 -7.111,2.201c-1.862,0.169 -3.556,-0.169 -4.91,-1.016c-0.677,-0.339 -1.185,-0.847 -1.524,-1.354c-0.339,-0.508 -0.508,-1.016 -0.339,-1.524c0,-0.339 0.17,-0.678 0.508,-1.186c0.339,-0.507 0.678,-1.015 1.016,-1.354c0.508,-0.508 1.355,-1.016 2.201,-1.693l2.709,-1.524c2.371,-1.355 4.741,-2.032 7.112,-2.201c1.862,-0.17 3.555,0.169 4.91,1.016c0.677,0.338 1.185,0.846 1.524,1.354c0.338,0.508 0.508,1.016 0.338,1.524c0,0.339 -0.169,0.677 -0.507,1.355c-0.339,0.508 -0.678,1.016 -1.016,1.354c-0.339,0.339 -1.186,0.847 -2.202,1.524Zm-1.185,-0.677c1.016,-0.508 1.863,-1.185 2.371,-1.863c0.508,-0.677 1.016,-1.185 1.016,-1.693c-0,-0.339 -0,-0.677 -0.17,-1.016c-0.169,-0.508 -0.677,-0.846 -1.185,-1.185c-1.185,-0.677 -2.878,-0.847 -4.741,-0.677c-1.862,0.338 -3.725,0.846 -5.418,1.862l-2.37,1.355c-1.016,0.508 -1.863,1.185 -2.371,1.862c-0.508,0.677 -1.016,1.185 -1.016,1.863c0,0.338 0,0.677 0.17,0.846c0.169,0.508 0.677,0.847 1.185,1.186c1.185,0.677 2.878,0.846 4.741,0.677c1.862,-0.339 3.725,-0.847 5.418,-1.863l2.37,-1.354Zm435.146,-227.901l-264.982,-153.063c-16.593,-9.651 -37.25,-9.651 -53.843,-0l-70.097,40.466c-10.667,-0.507 -21.503,-0.677 -32.34,-0.169c-10.497,0.508 -21.503,1.524 -31.323,-2.032c-8.128,-2.878 -14.9,-8.466 -21.842,-13.545c-18.117,-13.037 -39.959,-22.858 -61.971,-19.979c-2.539,-0.678 -5.079,-0.678 -7.111,0.846c-1.016,0.847 -1.862,1.863 -2.54,3.048c-2.37,4.402 -3.386,9.312 -4.233,14.222c-2.539,14.392 -5.079,28.954 -7.619,43.346c-2.37,13.206 -4.741,26.583 -3.556,39.959c0.678,7.111 2.371,14.561 7.112,19.979c2.032,2.371 4.402,4.064 7.111,5.757l-282.252,162.883c-10.159,5.926 -10.159,20.657 0,26.583l262.95,151.878c21.165,12.191 47.239,12.191 68.573,-0l497.963,-287.501c12.699,-7.281 12.699,-25.398 -0,-32.678Zm-180.323,-87.707c4.063,-2.37 8.974,-2.37 12.868,0l30.816,17.778c2.878,1.694 2.878,5.927 -0,7.62l-0.17,-0c-4.91,2.878 -10.836,2.878 -15.746,-0l-27.937,-16.085c-3.556,-2.032 -3.556,-7.281 0.169,-9.313Zm-445.136,324.074c-14.73,8.466 -38.943,8.466 -53.842,-0c-14.731,-8.466 -14.731,-22.52 -0,-30.985c14.73,-8.466 38.943,-8.466 53.842,-0c14.9,8.465 14.9,22.519 0,30.985Zm577.034,-214.018l-436.839,252.283l-253.976,-146.628l247.712,-143.074c11.852,-2.201 23.704,-5.587 35.556,-8.296c3.725,-0.847 7.619,-1.524 11.344,-1.016c36.912,5.757 74.331,-1.355 111.411,-5.588c13.038,-1.523 26.583,-3.047 38.097,-9.651c11.513,-6.603 20.318,-19.302 18.286,-32.339c-1.524,-8.974 -7.958,-16.424 -15.747,-21.334c-7.788,-4.741 -16.762,-7.112 -25.567,-9.143c-5.418,-1.186 -10.836,-2.371 -16.254,-3.387l25.059,-14.561c14.392,-8.297 32.17,-8.297 46.562,-0l214.525,123.771c7.112,4.402 7.112,14.9 -0.169,18.963Zm-617.162,261.427l0,11.513c0,3.217 -3.386,5.08 -6.264,3.556l-30.478,-17.609c-0.677,-0.339 -1.185,-0.847 -1.693,-1.186l20.318,-11.682l13.546,7.788c2.878,1.524 4.571,4.402 4.571,7.62Z" style="fill:#f7f5fa;fill-rule:nonzero;"/><path d="M505.972,643.217l-43.854,25.228l-18.286,-10.498l43.853,-25.228l18.287,10.498Zm-65.357,-5.419l17.271,9.99l12.021,-6.942l-17.27,-9.99l-12.022,6.942Zm80.087,14.054l-13.037,-7.45l-13.376,7.788l19.133,11.006l7.111,-4.064c2.878,-1.693 2.878,-5.756 0.169,-7.28Zm-56.721,17.778l12.699,7.281c4.063,2.37 9.143,2.37 13.207,-0l6.772,-3.895l-19.133,-11.005l-13.545,7.619Zm-25.906,-30.477l-7.111,4.064c-2.878,1.693 -2.878,5.587 0,7.28l11.006,6.265l13.376,-7.789l-17.271,-9.82Zm47.748,-7.619l-11.852,-6.773c-3.387,-1.863 -7.45,-1.863 -10.837,0l-7.958,4.572l17.271,9.989l13.376,-7.788Zm-6.095,28.953l19.132,11.006l12.022,-6.942l-19.133,-11.006l-12.021,6.942Zm280.22,-212.324c-15.408,-8.974 -40.636,-8.974 -56.044,-0c-15.408,8.974 -15.408,23.535 -0,32.34c7.788,4.402 17.947,6.603 28.106,6.603c15.408,10.667 35.049,4.402 42.668,-0c7.789,-4.402 5.927,-16.932 -3.047,-22.858c-0.17,-5.757 -3.895,-11.683 -11.683,-16.085Zm-135.285,19.133c-184.048,96.172 -279.204,102.437 -349.302,61.97c-14.392,-8.297 -24.72,-52.996 -25.397,-78.563c-1.185,-37.25 8.974,-79.241 21.165,-86.183c36.572,-21.164 185.91,-107.516 185.91,-107.516c-0,-0 76.701,44.191 186.08,35.895c-0,-0 -4.233,50.795 59.938,108.702c0,-0.17 -51.642,51.641 -78.394,65.695Zm-34.71,-51.134l-39.959,-23.027l-160.174,-0l-0,-46.393l-39.959,-23.027l0,92.447l5.926,11.006l226.208,-0l7.958,-11.006Z" style="fill:#fecf47;fill-rule:nonzero;"/><path d="M589.953,431.57l-240.092,-0l0,-15.408l240.092,-0l0,15.408Zm209.615,39.451c-7.789,-4.402 -17.948,-6.604 -28.107,-6.604c0,5.927 -3.894,11.683 -11.513,16.255c-7.789,4.402 -17.948,6.603 -28.107,6.603c0,5.926 3.894,11.683 11.514,16.255c15.408,8.974 40.636,8.974 56.044,-0c15.577,-9.143 15.577,-23.705 0.169,-32.509Zm-96.511,-69.59c0,0 -157.804,91.093 -184.048,106.162c-57.06,32.848 -177.952,40.467 -248.05,0c-14.392,-8.296 -20.318,-31.493 -21.164,-57.06l-0.17,0c-0.846,0.847 0,25.737 0,25.737c0.508,26.413 6.434,50.964 21.165,59.43c70.097,40.467 191.159,32.848 248.05,0c26.244,-15.069 184.048,-106.162 184.048,-106.162l0.169,-28.107Z" style="fill:#e29417;fill-rule:nonzero;"/></g></svg>