<?xml version="1.0" encoding="UTF-8" standalone="no"?><!DOCTYPE svg PUBLIC "-//W3C//DTD SVG 1.1//EN" "http://www.w3.org/Graphics/SVG/1.1/DTD/svg11.dtd"><svg width="100%" height="100%" viewBox="0 0 917 829" version="1.1" xmlns="http://www.w3.org/2000/svg" xmlns:xlink="http://www.w3.org/1999/xlink" xml:space="preserve" xmlns:serif="http://www.serif.com/" style="fill-rule:evenodd;clip-rule:evenodd;stroke-linejoin:round;stroke-miterlimit:2;"><g><path d="M394.795,132.593c-11.787,0 -22.594,4.152 -31.106,11.051c1.815,-5.266 2.846,-10.896 2.846,-16.785c-0,-28.358 -22.855,-51.345 -51.049,-51.345c-8.18,0 -15.884,1.983 -22.739,5.427c1.903,-5.047 2.992,-10.5 2.992,-16.215c0,-25.293 -20.386,-45.796 -45.533,-45.796c-23.195,-0 -42.301,17.459 -45.131,40.019c-8.379,-2.742 -17.315,-4.244 -26.603,-4.244c-34.164,0 -63.671,20.05 -77.533,49.082c-5.133,-3.185 -11.16,-5.056 -17.634,-5.056c-18.594,0 -33.667,15.159 -33.667,33.862c-0,2.99 0.424,5.873 1.146,8.633c-0.386,-0.008 -0.759,-0.058 -1.146,-0.058c-27.404,-0 -49.618,22.345 -49.618,49.906c-0,27.565 22.214,49.907 49.618,49.907c0.783,0 1.544,-0.083 2.318,-0.117c13.014,23.809 38.177,39.957 67.101,39.957c16.088,-0 30.998,-5.014 43.319,-13.542c15.753,19.807 39.968,32.504 67.145,32.504c25.538,-0 48.464,-11.209 64.207,-28.996c11.803,10.48 27.257,16.887 44.237,16.887c33.179,-0 60.642,-24.297 65.956,-56.146c23.037,-4.315 40.489,-24.606 40.489,-49.028c-0,-27.561 -22.213,-49.907 -49.615,-49.907" style="fill:#b8e5f8;fill-rule:nonzero;"/><path d="M394.795,113.916c-11.787,-0 -22.594,4.152 -31.106,11.049c1.815,-5.264 2.846,-10.894 2.846,-16.785c-0,-28.356 -22.855,-51.345 -51.049,-51.345c-8.18,0 -15.884,1.985 -22.739,5.427c1.903,-5.047 2.992,-10.499 2.992,-16.219c0,-25.288 -20.386,-45.792 -45.533,-45.792c-23.195,-0 -42.301,17.461 -45.131,40.02c-8.379,-2.743 -17.315,-4.243 -26.603,-4.243c-34.164,0 -63.671,20.045 -77.533,49.081c-5.133,-3.185 -11.16,-5.057 -17.634,-5.057c-18.594,0 -33.667,15.16 -33.667,33.864c-0,2.988 0.424,5.873 1.146,8.633c-0.386,-0.01 -0.759,-0.059 -1.146,-0.059c-27.404,0 -49.618,22.346 -49.618,49.907c-0,27.559 22.214,49.907 49.618,49.907c0.783,-0 1.544,-0.085 2.318,-0.117c13.014,23.809 38.177,39.956 67.101,39.956c16.088,0 30.998,-5.015 43.319,-13.542c15.753,19.808 39.968,32.503 67.145,32.503c25.538,-0 48.464,-11.212 64.207,-28.994c11.803,10.474 27.257,16.886 44.237,16.886c33.179,0 60.642,-24.298 65.956,-56.147c23.037,-4.314 40.489,-24.605 40.489,-49.026c-0,-27.566 -22.213,-49.907 -49.615,-49.907" style="fill:#e7f7fd;fill-rule:nonzero;"/><path d="M876.003,266.345c-9.535,-0 -18.277,3.329 -25.163,8.861c1.468,-4.222 2.302,-8.737 2.302,-13.46c0,-22.739 -18.488,-41.173 -41.294,-41.173c-6.617,0 -12.849,1.591 -18.394,4.352c1.539,-4.047 2.42,-8.42 2.42,-13.003c0,-20.282 -16.49,-36.723 -36.832,-36.723c-18.763,0 -34.218,14.001 -36.507,32.091c-6.778,-2.199 -14.007,-3.403 -21.52,-3.403c-27.636,0 -51.504,16.078 -62.718,39.358c-4.152,-2.554 -9.027,-4.054 -14.264,-4.054c-15.041,-0 -27.234,12.156 -27.234,27.154c-0,2.397 0.343,4.709 0.927,6.922c-0.312,-0.006 -0.614,-0.047 -0.927,-0.047c-22.168,0 -40.137,17.919 -40.137,40.02c0,22.103 17.969,40.02 40.137,40.02c0.634,-0 1.249,-0.067 1.875,-0.094c10.527,19.092 30.882,32.041 54.28,32.041c13.014,-0 25.074,-4.021 35.041,-10.86c12.743,15.884 32.331,26.065 54.315,26.065c20.658,0 39.203,-8.988 51.938,-23.251c9.548,8.403 22.048,13.541 35.784,13.541c26.838,0 49.054,-19.483 53.352,-45.023c18.636,-3.46 32.753,-19.731 32.753,-39.315c-0,-22.1 -17.968,-40.019 -40.134,-40.019" style="fill:#b8e5f8;fill-rule:nonzero;"/><path d="M876.003,251.367c-9.535,0 -18.277,3.33 -25.163,8.861c1.468,-4.222 2.302,-8.737 2.302,-13.46c0,-22.738 -18.488,-41.173 -41.294,-41.173c-6.617,-0 -12.849,1.592 -18.394,4.352c1.539,-4.048 2.42,-8.419 2.42,-13.006c0,-20.278 -16.49,-36.72 -36.832,-36.72c-18.763,-0 -34.218,14.002 -36.507,32.091c-6.778,-2.2 -14.007,-3.402 -21.52,-3.402c-27.636,-0 -51.504,16.074 -62.718,39.358c-4.152,-2.554 -9.027,-4.056 -14.264,-4.056c-15.041,0 -27.234,12.157 -27.234,27.155c-0,2.396 0.343,4.71 0.927,6.923c-0.312,-0.008 -0.614,-0.047 -0.927,-0.047c-22.168,0 -40.137,17.919 -40.137,40.02c0,22.099 17.969,40.02 40.137,40.02c0.634,-0 1.249,-0.068 1.875,-0.094c10.527,19.092 30.882,32.04 54.28,32.04c13.014,0 25.074,-4.021 35.041,-10.859c12.743,15.884 32.331,26.064 54.315,26.064c20.658,-0 39.203,-8.991 51.938,-23.25c9.548,8.399 22.048,13.541 35.784,13.541c26.838,-0 49.054,-19.484 53.352,-45.024c18.636,-3.459 32.753,-19.73 32.753,-39.314c-0,-22.105 -17.968,-40.02 -40.134,-40.02" style="fill:#e7f7fd;fill-rule:nonzero;"/><path d="M319.357,694.009c-9.535,-0 -18.277,3.329 -25.163,8.861c1.468,-4.222 2.302,-8.737 2.302,-13.46c0,-22.739 -18.488,-41.172 -41.294,-41.172c-6.617,-0 -12.849,1.59 -18.394,4.351c1.539,-4.047 2.42,-8.42 2.42,-13.003c0,-20.282 -16.49,-36.723 -36.832,-36.723c-18.763,0 -34.218,14.001 -36.507,32.091c-6.778,-2.199 -14.007,-3.403 -21.52,-3.403c-27.636,0 -51.504,16.078 -62.718,39.358c-4.152,-2.554 -9.027,-4.054 -14.264,-4.054c-15.041,0 -27.234,12.156 -27.234,27.154c-0,2.397 0.343,4.709 0.927,6.922c-0.312,-0.006 -0.614,-0.047 -0.927,-0.047c-22.168,0 -40.137,17.919 -40.137,40.02c-0,22.104 17.969,40.02 40.137,40.02c0.634,-0 1.249,-0.067 1.875,-0.094c10.527,19.093 30.882,32.041 54.279,32.041c13.014,-0 25.075,-4.02 35.042,-10.859c12.743,15.883 32.331,26.064 54.315,26.064c20.657,0 39.203,-8.988 51.938,-23.251c9.548,8.404 22.048,13.541 35.784,13.541c26.838,0 49.054,-19.483 53.352,-45.023c18.636,-3.46 32.753,-19.731 32.753,-39.314c-0,-22.101 -17.968,-40.02 -40.134,-40.02" style="fill:#b8e5f8;fill-rule:nonzero;"/><path d="M319.357,679.032c-9.535,-0 -18.277,3.329 -25.163,8.86c1.468,-4.221 2.302,-8.736 2.302,-13.46c0,-22.738 -18.488,-41.173 -41.294,-41.173c-6.617,0 -12.849,1.592 -18.394,4.352c1.539,-4.048 2.42,-8.419 2.42,-13.006c0,-20.278 -16.49,-36.72 -36.832,-36.72c-18.763,-0 -34.218,14.002 -36.507,32.092c-6.778,-2.2 -14.007,-3.403 -21.52,-3.403c-27.636,0 -51.504,16.074 -62.718,39.358c-4.152,-2.554 -9.027,-4.055 -14.264,-4.055c-15.041,-0 -27.234,12.157 -27.234,27.155c-0,2.396 0.343,4.709 0.927,6.922c-0.312,-0.008 -0.614,-0.047 -0.927,-0.047c-22.168,0 -40.137,17.919 -40.137,40.02c-0,22.1 17.969,40.02 40.137,40.02c0.634,-0 1.249,-0.068 1.875,-0.094c10.527,19.092 30.882,32.041 54.279,32.041c13.014,-0 25.075,-4.022 35.042,-10.86c12.743,15.884 32.331,26.064 54.315,26.064c20.657,-0 39.203,-8.991 51.938,-23.25c9.548,8.399 22.048,13.541 35.784,13.541c26.838,0 49.054,-19.484 53.352,-45.024c18.636,-3.459 32.753,-19.73 32.753,-39.314c-0,-22.104 -17.968,-40.019 -40.134,-40.019" style="fill:#e7f7fd;fill-rule:nonzero;"/><g><clipPath id="_clip1"><rect x="129.841" y="26.882" width="668.75" height="746.875"/></clipPath><g clip-path="url(#_clip1)"><path d="M474.659,585.284c-7.059,3.182 -15.191,3.182 -22.248,0c-12.174,-5.485 -33.27,-14.985 -57.887,-26.062c-104.357,-46.979 -171.259,-149.356 -171.259,-262.068l0,-181.953c102.603,8.111 172.57,-18.369 219.34,-78.108c5.005,-6.349 12.742,-10.072 20.922,-10.072c8.195,-0 15.916,3.723 20.938,10.072c46.769,59.739 116.736,86.219 219.339,78.108l0,181.953c0,112.712 -66.902,215.089 -171.259,262.068c-24.616,11.077 -45.712,20.577 -57.886,26.062Z" style="fill:#9f76f1;"/><path d="M350.364,301.687c-4.245,-3.54 -4.821,-9.859 -1.289,-14.104c3.54,-4.245 9.859,-4.814 14.104,-1.282l69.84,58.203c1.41,1.177 3.516,0.985 4.693,-0.432l124.944,-149.924c3.54,-4.245 9.859,-4.822 14.104,-1.282c4.245,3.532 4.813,9.852 1.281,14.096l-124.943,149.932c-8.257,9.908 -22.986,11.253 -32.902,2.988l-69.832,-58.195Z" style="fill:#eceef0;"/><path d="M413.324,721.806c12.068,12.067 12.054,31.623 -0.013,43.69c-5.793,5.793 -13.656,9.05 -21.838,9.05c-8.196,0 -16.059,-3.257 -21.839,-9.05l-36.001,-35.988c-15.017,-15.031 -35.387,-23.467 -56.638,-23.467l-64.167,0l0,-205.489l74.165,0c2.016,0 4.018,-0.227 5.98,-0.681l87.3,-20.089c26.898,-6.194 55.09,1.895 74.606,21.411l167.205,167.205c12.067,12.067 12.054,31.623 -0,43.69c-5.794,5.793 -13.656,9.05 -21.852,9.05c-8.196,0 -16.045,-3.257 -21.838,-9.037l-19.423,-19.422c12.068,12.054 12.054,31.623 -0.013,43.69c-5.78,5.793 -13.642,9.051 -21.838,9.051c-8.196,-0 -16.045,-3.258 -21.839,-9.051l-29.14,-29.127c5.794,5.794 9.051,13.643 9.051,21.839c-0,8.196 -3.257,16.058 -9.051,21.852c-5.793,5.793 -13.655,9.05 -21.851,9.05c-8.183,-0 -16.045,-3.257 -21.839,-9.05l-29.127,-29.127Z" style="fill:#ffd1b3;"/><path d="M420.441,655.702c-3.898,-3.911 -3.898,-10.252 -0,-14.163c3.911,-3.911 10.251,-3.911 14.163,0l82.921,82.922c3.911,3.898 3.911,10.252 0,14.149c-3.911,3.912 -10.251,3.912 -14.163,0l-82.921,-82.908Zm26.403,85.471c3.911,3.898 3.911,10.252 0,14.15c-3.911,3.911 -10.252,3.911 -14.149,-0l-55.944,-55.931c-3.912,-3.911 -3.912,-10.252 -0,-14.163c3.911,-3.898 10.251,-3.898 14.162,0l55.931,55.944Zm33.399,-113.076c-3.912,-3.898 -3.912,-10.252 -0,-14.149c3.911,-3.912 10.251,-3.912 14.162,-0l81.814,81.813c3.911,3.911 3.911,10.252 0,14.163c-3.911,3.911 -10.252,3.911 -14.163,0l-81.813,-81.827Z" style="fill:#e0a285;"/><path d="M714.209,500.559l-74.09,-0c-2.017,-0 -4.026,-0.235 -5.987,-0.683l-87.298,-20.102c-26.895,-6.191 -55.088,1.905 -74.602,21.423l-47.162,47.162c-6.891,6.888 -10.755,16.217 -10.751,25.958c-0.003,9.735 3.86,19.075 10.743,25.956l0.021,0.018c6.882,6.881 16.211,10.741 25.942,10.741c9.73,0 19.057,-3.859 25.939,-10.743l38.507,-38.501l106.609,106.614c5.797,5.788 9.05,13.646 9.046,21.841c0.008,5.609 -1.526,11.057 -4.345,15.797l87.426,0.004l0.002,-205.485Z" style="fill:#e0a285;"/><path d="M209.931,454.178c7.081,-0 13.872,2.812 18.881,7.815c5.008,5.015 7.817,11.805 7.817,18.886l-0,240.267c-0,7.082 -2.809,13.871 -7.817,18.886c-5.009,5.003 -11.8,7.816 -18.881,7.816l-53.394,-0c-7.08,-0 -13.872,-2.813 -18.88,-7.816c-4.998,-5.015 -7.817,-11.804 -7.817,-18.886l-0,-240.267c-0,-7.081 2.819,-13.871 7.817,-18.886c5.008,-5.003 11.8,-7.815 18.88,-7.815l53.394,-0Z" style="fill:#9f76f1;"/><path d="M717.182,454.178c-7.08,-0 -13.872,2.812 -18.88,7.815c-5.009,5.015 -7.817,11.805 -7.817,18.886l-0,240.267c-0,7.082 2.808,13.871 7.817,18.886c5.008,5.003 11.8,7.816 18.88,7.816l53.395,-0c7.08,-0 13.871,-2.813 18.88,-7.816c4.998,-5.015 7.817,-11.804 7.817,-18.886l-0,-240.267c-0,-7.081 -2.819,-13.871 -7.817,-18.886c-5.009,-5.003 -11.8,-7.815 -18.88,-7.815l-53.395,-0Z" style="fill:#9f76f1;"/></g></g><rect x="-0" y="0" width="444.956" height="298.677" style="fill-opacity:0;"/><rect x="556.646" y="160.02" width="358.696" height="240.775" style="fill-opacity:0;"/><rect x="-0" y="587.684" width="358.696" height="240.775" style="fill-opacity:0;"/><rect x="129.841" y="26.882" width="667.434" height="747.825" style="fill-opacity:0;"/></g></svg>