<svg width="140" height="152" viewBox="0 0 140 152" fill="none" xmlns="http://www.w3.org/2000/svg">
<path d="M106.575 121.513L111.106 116.659C132.069 117.398 132.391 116.605 133.313 114.282L139.072 99.1629L139.5 97.7298L139.032 96.4758C138.785 95.8135 138.025 93.8374 124.935 80.3798V73.3008C140.039 57.612 139.716 56.8086 138.856 54.5123L133.121 39.236C132.261 36.9451 131.933 36.0494 111.121 36.6628L106.59 31.6142C107.064 24.1776 106.826 16.7082 105.88 9.32414L105.296 7.89641L90.3239 0.839157C88.1188 -0.246573 87.3435 -0.637436 73.2069 15.9634L66.8535 15.8602C52.299 -0.892583 51.6093 -0.588579 49.4294 0.361436L35.5093 6.43067C33.3294 7.38069 32.5591 7.71726 33.4049 30.5176L28.9092 35.3491C7.95596 34.6108 7.63376 35.4143 6.72253 37.7269L0.953097 52.8511L0.5 54.3005L0.973235 55.56C1.21992 56.2114 1.94991 58.1657 15.0696 71.6397V78.6969C-0.0336457 94.3857 0.293589 95.1892 1.15951 97.4909L6.88866 112.783C7.76465 115.123 8.07679 115.954 28.884 115.367L33.415 120.443C32.9438 127.868 33.1749 135.326 34.1047 142.701L34.6887 144.139L49.7566 151.24C51.9466 152.228 52.7068 152.581 66.8031 136.04L73.1566 136.127C87.7312 152.901 88.4763 152.575 90.6058 151.647L104.496 145.594C106.691 144.655 107.456 144.324 106.575 121.513ZM46.877 86.0962C45.1202 81.1455 44.7585 75.7457 45.8373 70.5742C46.916 65.4027 49.3871 60.69 52.9405 57.0272C56.4939 53.3645 60.9714 50.915 65.811 49.9861C70.6507 49.0571 75.637 49.6901 80.1443 51.8056C84.6515 53.9211 88.479 57.4249 91.1465 61.8773C93.8139 66.3297 95.2025 71.5324 95.1379 76.8326C95.0734 82.1329 93.5587 87.2945 90.7838 91.6699C88.0089 96.0453 84.0974 99.4395 79.5402 101.427C73.3224 104.049 66.3945 103.907 60.2729 101.034C54.1512 98.1611 49.3345 92.7899 46.877 86.0962Z" fill="#2A313C"/>
</svg>
