<svg width="24" height="20" viewBox="0 0 24 20" fill="none" xmlns="http://www.w3.org/2000/svg">
<g clip-path="url(#clip0_683_7657)">
<path d="M20.318 4.68747C20.4009 4.68747 20.4804 4.65455 20.539 4.59594C20.5976 4.53734 20.6305 4.45785 20.6305 4.37497V3.33435C20.6302 3.06293 20.5222 2.80273 20.3303 2.61081C20.1384 2.41889 19.8782 2.31093 19.6068 2.3106H17.9274L17.5443 1.17997C17.5182 1.10308 17.4633 1.03934 17.3911 1.00225C17.3189 0.965152 17.2351 0.957611 17.1574 0.981222L8.06176 3.74622C7.98648 3.77369 7.92459 3.82897 7.88884 3.90069C7.85309 3.97242 7.8462 4.05511 7.86959 4.13176C7.89298 4.20841 7.94486 4.27318 8.01456 4.31272C8.08426 4.35227 8.16647 4.36359 8.24426 4.34435L17.0499 1.66685L17.8893 4.14497C17.9159 4.22346 17.9726 4.28816 18.0469 4.32485C18.1212 4.36154 18.207 4.3672 18.2855 4.3406C18.364 4.31399 18.4287 4.2573 18.4654 4.18299C18.5021 4.10868 18.5077 4.02283 18.4811 3.94435L18.1393 2.93497H19.6074C19.8274 2.93497 20.0061 3.11372 20.0061 3.33372V4.37497C20.0055 4.54747 20.1455 4.68747 20.318 4.68747Z" fill="white"/>
<path d="M22.8125 9.37482C22.7296 9.37482 22.6501 9.40774 22.5915 9.46635C22.5329 9.52495 22.5 9.60444 22.5 9.68732C22.5 9.7702 22.5329 9.84969 22.5915 9.90829C22.6501 9.9669 22.7296 9.99982 22.8125 9.99982C23.0319 9.99982 23.125 10.0929 23.125 10.3123V14.0623C23.125 14.2817 23.0319 14.3748 22.8125 14.3748H17.8125C17.5931 14.3748 17.5 14.2817 17.5 14.0623V10.9373C17.5 10.7179 17.5931 10.6248 17.8125 10.6248H21.5625C21.6454 10.6248 21.7249 10.5919 21.7835 10.5333C21.8421 10.4747 21.875 10.3952 21.875 10.3123V6.56232C21.875 5.99294 21.5069 5.62482 20.9375 5.62482H1.875C1.10437 5.62482 0.625 5.14544 0.625 4.37482C0.625 3.60419 1.10437 3.12482 1.875 3.12482H5.0475L3.15625 3.74857C3.11586 3.76022 3.07824 3.77989 3.04563 3.80642C3.01303 3.83294 2.98611 3.86577 2.96648 3.90294C2.94686 3.94011 2.93494 3.98086 2.93143 4.02275C2.92792 4.06464 2.9329 4.1068 2.94607 4.14672C2.95923 4.18663 2.98031 4.22349 3.00805 4.25507C3.03579 4.28665 3.06962 4.3123 3.1075 4.33051C3.14539 4.34871 3.18656 4.35908 3.22855 4.36101C3.27054 4.36293 3.31248 4.35636 3.35187 4.34169L14.6763 0.60857C14.7152 0.595684 14.7513 0.575245 14.7824 0.548421C14.8135 0.521596 14.839 0.488911 14.8574 0.452232C14.8759 0.415553 14.8869 0.375598 14.89 0.334648C14.893 0.293698 14.8879 0.252556 14.875 0.21357C14.8621 0.174583 14.8417 0.138517 14.8149 0.10743C14.788 0.0763425 14.7553 0.0508431 14.7187 0.0323875C14.682 0.0139318 14.642 0.0028814 14.6011 -0.000132888C14.5601 -0.00314718 14.519 0.00193371 14.48 0.0148197L6.9175 2.50857C6.90312 2.50607 6.89 2.49982 6.875 2.49982H1.875C0.75375 2.49982 0 3.25357 0 4.37482V18.1248C0 19.2461 0.75375 19.9998 1.875 19.9998H20.9375C21.5069 19.9998 21.875 19.6317 21.875 19.0623V15.9373C21.875 15.8544 21.8421 15.775 21.7835 15.7163C21.7249 15.6577 21.6454 15.6248 21.5625 15.6248C21.4796 15.6248 21.4001 15.6577 21.3415 15.7163C21.2829 15.775 21.25 15.8544 21.25 15.9373V19.0623C21.25 19.2817 21.1569 19.3748 20.9375 19.3748H1.875C1.10437 19.3748 0.625 18.8954 0.625 18.1248V5.81982C0.945625 6.09044 1.37 6.24982 1.875 6.24982H20.9375C21.1569 6.24982 21.25 6.34294 21.25 6.56232V9.99982H17.8125C17.2431 9.99982 16.875 10.3679 16.875 10.9373V14.0623C16.875 14.6317 17.2431 14.9998 17.8125 14.9998H22.8125C23.3819 14.9998 23.75 14.6317 23.75 14.0623V10.3123C23.75 9.74294 23.3819 9.37482 22.8125 9.37482Z" fill="white"/>
<path d="M20 13.125C20.3452 13.125 20.625 12.8452 20.625 12.5C20.625 12.1548 20.3452 11.875 20 11.875C19.6548 11.875 19.375 12.1548 19.375 12.5C19.375 12.8452 19.6548 13.125 20 13.125Z" fill="white"/>
</g>
<defs>
<clipPath id="clip0_683_7657">
<rect width="23.75" height="20" fill="white"/>
</clipPath>
</defs>
</svg>
