<svg width="140" height="150" viewBox="0 0 140 150" fill="none" xmlns="http://www.w3.org/2000/svg">
<path d="M0.5 140.25V55.5054C0.5 53.0094 1.06924 50.6467 2.20771 48.4173C3.34619 46.1878 4.9149 44.3516 6.91386 42.9087L60.3792 3.14918C63.1791 1.04973 66.3761 0 69.9702 0C73.5644 0 76.7812 1.04973 79.6208 3.14918L133.086 42.8989C135.092 44.3419 136.66 46.1813 137.792 48.4173C138.931 50.6467 139.5 53.0094 139.5 55.5054V140.25C139.5 142.863 138.51 145.141 136.531 147.085C134.552 149.028 132.232 150 129.571 150H95.9731C93.6962 150 91.7899 149.246 90.2543 147.738C88.7187 146.224 87.9509 144.352 87.9509 142.122V95.6256C87.9509 93.3962 87.183 91.5275 85.6474 90.0195C84.1052 88.505 82.1989 87.7478 79.9286 87.7478H60.0714C57.8011 87.7478 55.8981 88.505 54.3625 90.0195C52.8203 91.5275 52.0491 93.3962 52.0491 95.6256V142.132C52.0491 144.361 51.2813 146.23 49.7457 147.738C48.2101 149.246 46.3071 150 44.0368 150H10.4286C7.76771 150 5.44774 149.028 3.46864 147.085C1.48955 145.141 0.5 142.863 0.5 140.25Z" fill="#2A313C"/>
</svg>
