<svg width="825" height="825" viewBox="0 0 825 825" fill="none" xmlns="http://www.w3.org/2000/svg">
<path d="M412.498 0.00012207C184.682 0.00012207 -0.000244141 184.682 -0.000244141 412.499C-0.000244141 640.315 184.682 824.997 412.498 824.997C640.315 824.997 824.997 640.315 824.997 412.499C824.997 184.682 640.315 0.00012207 412.498 0.00012207Z" fill="#050505"/>
<path fill-rule="evenodd" clip-rule="evenodd" d="M113 281.67H363.751V369.604H280.891V543.323H189.312V369.604H113V281.67Z" fill="white"/>
<path fill-rule="evenodd" clip-rule="evenodd" d="M486.289 543.323H378.254L320.7 281.67H417.703L441.809 412.546L442.802 417.053L472.604 281.67H559.262L589.064 417.053L590.047 412.546L614.164 281.67H711.166L653.569 543.323H545.621L515.928 408.41L486.289 543.323Z" fill="white"/>
<path fill-rule="evenodd" clip-rule="evenodd" d="M378.252 543.321L320.699 281.667L428.636 281.668L486.287 543.321L378.252 543.321Z" fill="#AD60F2"/>
</svg>
