<svg width="160" height="160" viewBox="0 0 160 160" fill="none" xmlns="http://www.w3.org/2000/svg">
<path d="M95.2 5.68699C90.2853 4.68379 85.2187 4.17713 80 4.16699C38.0252 4.16699 4 38.1542 4 80.0834C4 122.013 38.0252 156 80 156C121.975 156 156 122.013 156 80.0834C155.99 74.8799 155.483 69.8183 154.48 64.8986" stroke="#2A313C" stroke-width="7" stroke-linecap="round" stroke-linejoin="round"/>
<path d="M79.9998 57.3064C71.6018 57.3064 64.7998 62.406 64.7998 68.6988C64.7998 74.984 71.6018 80.0836 79.9998 80.0836C88.3978 80.0836 95.1998 85.1756 95.1998 91.4684C95.1998 97.7612 88.3978 102.861 79.9998 102.861M79.9998 57.3064C86.6118 57.3064 92.251 60.4756 94.3334 64.9064M79.9998 57.3064V49.714M79.9998 102.861C73.3878 102.861 67.7486 99.6916 65.6662 95.2608M79.9998 102.861V110.453M155.962 4L124.232 35.7224M117.969 7.9596L118.866 31.4284C118.866 36.9612 122.172 40.4116 128.199 40.8448L151.941 41.962" stroke="#2A313C" stroke-width="7" stroke-linecap="round" stroke-linejoin="round"/>
</svg>
