<svg width="2450" height="5326" viewBox="0 0 2450 5326" fill="none" xmlns="http://www.w3.org/2000/svg">
<rect width="2450" height="5326" fill="#4615A6"/>
<path d="M682.232 4347V4241.73H642.908V4227.64H737.514V4241.73H698.027V4347H682.232ZM745.575 4347V4260.54H758.764V4273.64C762.129 4267.51 765.223 4263.47 768.046 4261.51C770.922 4259.56 774.07 4258.58 777.49 4258.58C782.429 4258.58 787.45 4260.16 792.552 4263.3L787.504 4276.9C783.922 4274.78 780.34 4273.72 776.757 4273.72C773.555 4273.72 770.678 4274.7 768.127 4276.66C765.576 4278.56 763.758 4281.22 762.672 4284.63C761.044 4289.85 760.23 4295.54 760.23 4301.73V4347H745.575ZM857.93 4347V4334.3C851.199 4344.07 842.053 4348.95 830.492 4348.95C825.39 4348.95 820.614 4347.98 816.163 4346.02C811.766 4344.07 808.483 4341.63 806.311 4338.7C804.195 4335.71 802.702 4332.07 801.834 4327.79C801.237 4324.91 800.938 4320.35 800.938 4314.11V4260.54H815.593V4308.49C815.593 4316.14 815.892 4321.3 816.489 4323.96C817.411 4327.81 819.365 4330.85 822.351 4333.08C825.336 4335.25 829.027 4336.33 833.423 4336.33C837.82 4336.33 841.945 4335.22 845.799 4333C849.652 4330.72 852.366 4327.65 853.94 4323.8C855.569 4319.89 856.383 4314.24 856.383 4306.86V4260.54H871.038V4347H857.93ZM888.217 4321.19L902.709 4318.91C903.523 4324.72 905.776 4329.17 909.467 4332.26C913.212 4335.36 918.422 4336.9 925.099 4336.9C931.829 4336.9 936.823 4335.55 940.079 4332.83C943.336 4330.07 944.964 4326.84 944.964 4323.14C944.964 4319.83 943.526 4317.23 940.649 4315.33C938.641 4314.03 933.647 4312.37 925.669 4310.36C914.921 4307.65 907.458 4305.31 903.279 4303.36C899.154 4301.35 896.006 4298.61 893.835 4295.14C891.718 4291.61 890.659 4287.73 890.659 4283.49C890.659 4279.64 891.528 4276.09 893.265 4272.83C895.056 4269.52 897.471 4266.78 900.511 4264.61C902.79 4262.92 905.884 4261.51 909.792 4260.37C913.755 4259.18 917.988 4258.58 922.493 4258.58C929.278 4258.58 935.221 4259.56 940.324 4261.51C945.48 4263.47 949.279 4266.13 951.722 4269.49C954.164 4272.8 955.847 4277.25 956.77 4282.84L942.44 4284.8C941.789 4280.35 939.889 4276.87 936.741 4274.38C933.647 4271.88 929.251 4270.63 923.552 4270.63C916.821 4270.63 912.018 4271.74 909.141 4273.97C906.264 4276.19 904.826 4278.8 904.826 4281.79C904.826 4283.68 905.423 4285.39 906.617 4286.91C907.811 4288.49 909.684 4289.79 912.235 4290.82C913.7 4291.37 918.015 4292.61 925.18 4294.57C935.547 4297.34 942.766 4299.62 946.837 4301.41C950.962 4303.14 954.192 4305.69 956.525 4309.06C958.859 4312.43 960.026 4316.6 960.026 4321.6C960.026 4326.48 958.588 4331.1 955.711 4335.44C952.889 4339.73 948.791 4343.06 943.417 4345.45C938.044 4347.79 931.965 4348.95 925.18 4348.95C913.944 4348.95 905.369 4346.62 899.452 4341.95C893.59 4337.28 889.845 4330.36 888.217 4321.19ZM1009.45 4333.89L1011.56 4346.84C1007.44 4347.71 1003.75 4348.14 1000.49 4348.14C995.171 4348.14 991.046 4347.3 988.115 4345.62C985.184 4343.93 983.122 4341.74 981.928 4339.02C980.733 4336.25 980.136 4330.47 980.136 4321.68V4271.93H969.389V4260.54H980.136V4239.12L994.71 4230.33V4260.54H1009.45V4271.93H994.71V4322.49C994.71 4326.67 994.954 4329.36 995.443 4330.55C995.985 4331.75 996.827 4332.7 997.967 4333.4C999.161 4334.11 1000.84 4334.46 1003.01 4334.46C1004.64 4334.46 1006.79 4334.27 1009.45 4333.89ZM1046.57 4347L1014.9 4227.64H1031.1L1049.26 4305.88C1051.21 4314.08 1052.9 4322.22 1054.31 4330.31C1057.35 4317.55 1059.14 4310.2 1059.68 4308.25L1082.4 4227.64H1101.45L1118.54 4288.05C1122.83 4303.03 1125.93 4317.12 1127.83 4330.31C1129.35 4322.76 1131.33 4314.11 1133.77 4304.34L1152.5 4227.64H1168.37L1135.64 4347H1120.42L1095.26 4256.06C1093.14 4248.46 1091.89 4243.79 1091.51 4242.05C1090.27 4247.54 1089.1 4252.2 1088.01 4256.06L1062.69 4347H1046.57ZM1181.4 4244.5V4227.64H1196.05V4244.5H1181.4ZM1181.4 4347V4260.54H1196.05V4347H1181.4ZM1212.58 4321.19L1227.07 4318.91C1227.89 4324.72 1230.14 4329.17 1233.83 4332.26C1237.58 4335.36 1242.79 4336.9 1249.46 4336.9C1256.19 4336.9 1261.19 4335.55 1264.44 4332.83C1267.7 4330.07 1269.33 4326.84 1269.33 4323.14C1269.33 4319.83 1267.89 4317.23 1265.01 4315.33C1263.01 4314.03 1258.01 4312.37 1250.03 4310.36C1239.29 4307.65 1231.82 4305.31 1227.64 4303.36C1223.52 4301.35 1220.37 4298.61 1218.2 4295.14C1216.08 4291.61 1215.02 4287.73 1215.02 4283.49C1215.02 4279.64 1215.89 4276.09 1217.63 4272.83C1219.42 4269.52 1221.84 4266.78 1224.88 4264.61C1227.15 4262.92 1230.25 4261.51 1234.16 4260.37C1238.12 4259.18 1242.35 4258.58 1246.86 4258.58C1253.64 4258.58 1259.59 4259.56 1264.69 4261.51C1269.84 4263.47 1273.64 4266.13 1276.09 4269.49C1278.53 4272.8 1280.21 4277.25 1281.13 4282.84L1266.8 4284.8C1266.15 4280.35 1264.25 4276.87 1261.11 4274.38C1258.01 4271.88 1253.62 4270.63 1247.92 4270.63C1241.19 4270.63 1236.38 4271.74 1233.51 4273.97C1230.63 4276.19 1229.19 4278.8 1229.19 4281.79C1229.19 4283.68 1229.79 4285.39 1230.98 4286.91C1232.18 4288.49 1234.05 4289.79 1236.6 4290.82C1238.06 4291.37 1242.38 4292.61 1249.54 4294.57C1259.91 4297.34 1267.13 4299.62 1271.2 4301.41C1275.33 4303.14 1278.56 4305.69 1280.89 4309.06C1283.22 4312.43 1284.39 4316.6 1284.39 4321.6C1284.39 4326.48 1282.95 4331.1 1280.08 4335.44C1277.25 4339.73 1273.16 4343.06 1267.78 4345.45C1262.41 4347.79 1256.33 4348.95 1249.54 4348.95C1238.31 4348.95 1229.73 4346.62 1223.82 4341.95C1217.95 4337.28 1214.21 4330.36 1212.58 4321.19ZM1361 4319.16L1376.15 4321.03C1373.76 4329.88 1369.34 4336.74 1362.88 4341.63C1356.42 4346.51 1348.17 4348.95 1338.13 4348.95C1325.48 4348.95 1315.44 4345.07 1308 4337.31C1300.62 4329.5 1296.93 4318.56 1296.93 4304.5C1296.93 4289.95 1300.67 4278.66 1308.16 4270.63C1315.65 4262.6 1325.37 4258.58 1337.31 4258.58C1348.87 4258.58 1358.32 4262.52 1365.64 4270.39C1372.97 4278.26 1376.64 4289.33 1376.64 4303.6C1376.64 4304.47 1376.61 4305.78 1376.55 4307.51H1312.07C1312.62 4317.01 1315.3 4324.28 1320.13 4329.33C1324.96 4334.38 1330.99 4336.9 1338.21 4336.9C1343.58 4336.9 1348.17 4335.49 1351.97 4332.67C1355.77 4329.85 1358.78 4325.34 1361 4319.16ZM1312.89 4295.46H1361.17C1360.52 4288.19 1358.67 4282.74 1355.63 4279.1C1350.96 4273.45 1344.91 4270.63 1337.47 4270.63C1330.74 4270.63 1325.07 4272.88 1320.46 4277.39C1315.9 4281.89 1313.38 4287.92 1312.89 4295.46ZM1442.26 4347V4227.64H1487.04C1496.16 4227.64 1503.46 4228.86 1508.94 4231.31C1514.47 4233.69 1518.79 4237.41 1521.88 4242.46C1525.03 4247.45 1526.61 4252.69 1526.61 4258.17C1526.61 4263.28 1525.22 4268.08 1522.45 4272.59C1519.69 4277.09 1515.51 4280.73 1509.92 4283.49C1517.13 4285.61 1522.67 4289.22 1526.52 4294.32C1530.43 4299.43 1532.39 4305.45 1532.39 4312.4C1532.39 4317.99 1531.19 4323.2 1528.8 4328.03C1526.47 4332.81 1523.57 4336.5 1520.09 4339.1C1516.62 4341.71 1512.25 4343.69 1506.98 4345.05C1501.77 4346.35 1495.37 4347 1487.77 4347H1442.26ZM1458.05 4277.8H1483.86C1490.86 4277.8 1495.88 4277.33 1498.92 4276.41C1502.94 4275.22 1505.95 4273.24 1507.96 4270.47C1510.02 4267.7 1511.06 4264.23 1511.06 4260.05C1511.06 4256.08 1510.11 4252.61 1508.21 4249.63C1506.31 4246.59 1503.59 4244.52 1500.06 4243.44C1496.54 4242.3 1490.48 4241.73 1481.91 4241.73H1458.05V4277.8ZM1458.05 4332.91H1487.77C1492.87 4332.91 1496.45 4332.72 1498.52 4332.34C1502.15 4331.69 1505.19 4330.61 1507.64 4329.09C1510.08 4327.57 1512.09 4325.37 1513.66 4322.49C1515.23 4319.56 1516.02 4316.2 1516.02 4312.4C1516.02 4307.95 1514.88 4304.09 1512.6 4300.84C1510.32 4297.53 1507.15 4295.22 1503.08 4293.92C1499.06 4292.56 1493.25 4291.88 1485.65 4291.88H1458.05V4332.91ZM1608.67 4336.33C1603.25 4340.95 1598.01 4344.2 1592.96 4346.1C1587.97 4348 1582.59 4348.95 1576.84 4348.95C1567.34 4348.95 1560.04 4346.65 1554.94 4342.03C1549.84 4337.37 1547.29 4331.42 1547.29 4324.2C1547.29 4319.97 1548.24 4316.12 1550.14 4312.64C1552.09 4309.11 1554.61 4306.29 1557.71 4304.17C1560.86 4302.06 1564.38 4300.46 1568.29 4299.37C1571.17 4298.61 1575.51 4297.88 1581.32 4297.17C1593.15 4295.76 1601.86 4294.08 1607.45 4292.13C1607.51 4290.12 1607.53 4288.84 1607.53 4288.3C1607.53 4282.33 1606.15 4278.12 1603.38 4275.68C1599.64 4272.37 1594.07 4270.71 1586.69 4270.71C1579.8 4270.71 1574.7 4271.93 1571.39 4274.38C1568.13 4276.76 1565.71 4281.03 1564.14 4287.16L1549.81 4285.2C1551.11 4279.07 1553.26 4274.13 1556.24 4270.39C1559.23 4266.59 1563.54 4263.68 1569.19 4261.68C1574.83 4259.61 1581.37 4258.58 1588.81 4258.58C1596.19 4258.58 1602.19 4259.45 1606.8 4261.19C1611.41 4262.92 1614.81 4265.12 1616.98 4267.78C1619.15 4270.39 1620.67 4273.7 1621.54 4277.71C1622.03 4280.21 1622.27 4284.72 1622.27 4291.23V4310.77C1622.27 4324.39 1622.57 4333.02 1623.17 4336.66C1623.82 4340.24 1625.07 4343.69 1626.91 4347H1611.6C1610.09 4343.96 1609.11 4340.41 1608.67 4336.33ZM1607.45 4303.6C1602.13 4305.78 1594.15 4307.62 1583.52 4309.14C1577.49 4310.01 1573.23 4310.99 1570.73 4312.07C1568.24 4313.16 1566.31 4314.76 1564.95 4316.88C1563.6 4318.94 1562.92 4321.25 1562.92 4323.8C1562.92 4327.7 1564.38 4330.96 1567.31 4333.57C1570.3 4336.17 1574.64 4337.47 1580.34 4337.47C1585.99 4337.47 1591.01 4336.25 1595.4 4333.81C1599.8 4331.31 1603.03 4327.92 1605.09 4323.63C1606.67 4320.32 1607.45 4315.44 1607.45 4308.98V4303.6ZM1645.07 4347V4260.54H1658.26V4272.83C1664.61 4263.33 1673.78 4258.58 1685.78 4258.58C1690.99 4258.58 1695.76 4259.53 1700.1 4261.43C1704.5 4263.28 1707.79 4265.72 1709.96 4268.76C1712.13 4271.8 1713.65 4275.41 1714.52 4279.59C1715.06 4282.3 1715.33 4287.05 1715.33 4293.83V4347H1700.67V4294.4C1700.67 4288.43 1700.1 4283.98 1698.97 4281.05C1697.83 4278.07 1695.79 4275.71 1692.86 4273.97C1689.98 4272.18 1686.59 4271.28 1682.68 4271.28C1676.44 4271.28 1671.04 4273.26 1666.48 4277.23C1661.97 4281.19 1659.72 4288.71 1659.72 4299.78V4347H1645.07ZM1737.96 4347V4227.64H1752.62V4295.71L1787.3 4260.54H1806.27L1773.22 4292.61L1809.61 4347H1791.54L1762.96 4302.79L1752.62 4312.72V4347H1737.96Z" fill="white"/>
<path d="M1225.5 2251C997.682 2251 813 2435.68 813 2663.5C813 2891.32 997.682 3076 1225.5 3076C1453.32 3076 1638 2891.32 1638 2663.5C1638 2435.68 1453.32 2251 1225.5 2251Z" fill="#050505"/>
<path fill-rule="evenodd" clip-rule="evenodd" d="M926 2532.67H1176.75V2620.6H1093.89V2794.32H1002.31V2620.6H926V2532.67Z" fill="white"/>
<path fill-rule="evenodd" clip-rule="evenodd" d="M1299.29 2794.32H1191.25L1133.7 2532.67H1230.7L1254.81 2663.55L1255.8 2668.05L1285.6 2532.67H1372.26L1402.06 2668.05L1403.05 2663.55L1427.16 2532.67H1524.17L1466.57 2794.32H1358.62L1328.93 2659.41L1299.29 2794.32Z" fill="white"/>
<path fill-rule="evenodd" clip-rule="evenodd" d="M1191.25 2794.32L1133.7 2532.67L1241.64 2532.67L1299.29 2794.32L1191.25 2794.32Z" fill="#AD60F2"/>
</svg>
