<?xml version="1.0" encoding="UTF-8" standalone="no"?><!DOCTYPE svg PUBLIC "-//W3C//DTD SVG 1.1//EN" "http://www.w3.org/Graphics/SVG/1.1/DTD/svg11.dtd"><svg width="100%" height="100%" viewBox="0 0 951 791" version="1.1" xmlns="http://www.w3.org/2000/svg" xmlns:xlink="http://www.w3.org/1999/xlink" xml:space="preserve" xmlns:serif="http://www.serif.com/" style="fill-rule:evenodd;clip-rule:evenodd;stroke-linejoin:round;stroke-miterlimit:2;"><g><path d="M407.925,249.688c-12.179,0 -23.346,4.29 -32.141,11.419c1.875,-5.441 2.941,-11.259 2.941,-17.344c-0,-29.3 -23.615,-53.052 -52.747,-53.052c-8.452,-0 -16.412,2.049 -23.495,5.607c1.966,-5.215 3.092,-10.849 3.092,-16.755c-0,-26.134 -21.065,-47.318 -47.048,-47.318c-23.967,-0 -43.708,18.04 -46.632,41.349c-8.657,-2.833 -17.891,-4.384 -27.487,-4.384c-35.3,0 -65.789,20.717 -80.112,50.714c-5.304,-3.291 -11.531,-5.224 -18.221,-5.224c-19.212,-0 -34.787,15.663 -34.787,34.988c0,3.089 0.439,6.069 1.185,8.92c-0.398,-0.008 -0.785,-0.06 -1.185,-0.06c-28.315,-0 -51.268,23.089 -51.268,51.566c0,28.481 22.953,51.567 51.268,51.567c0.81,-0 1.596,-0.086 2.396,-0.121c13.447,24.601 39.447,41.285 69.333,41.285c16.623,0 32.029,-5.18 44.759,-13.992c16.277,20.466 41.298,33.585 69.379,33.585c26.387,0 50.075,-11.581 66.342,-29.959c12.196,10.827 28.163,17.447 45.708,17.447c34.282,0 62.659,-25.104 68.149,-58.013c23.804,-4.458 41.836,-25.424 41.836,-50.658c-0,-28.478 -22.951,-51.567 -51.265,-51.567" style="fill:#b8e5f8;fill-rule:nonzero;"/><path d="M407.925,230.39c-12.179,-0 -23.346,4.29 -32.141,11.416c1.875,-5.439 2.941,-11.256 2.941,-17.343c-0,-29.299 -23.615,-53.052 -52.747,-53.052c-8.452,-0 -16.412,2.05 -23.495,5.607c1.966,-5.215 3.092,-10.848 3.092,-16.758c-0,-26.129 -21.065,-47.315 -47.048,-47.315c-23.967,-0 -43.708,18.041 -46.632,41.351c-8.657,-2.835 -17.891,-4.385 -27.487,-4.385c-35.3,0 -65.789,20.712 -80.112,50.714c-5.304,-3.291 -11.531,-5.225 -18.221,-5.225c-19.212,-0 -34.787,15.664 -34.787,34.99c0,3.087 0.439,6.068 1.185,8.92c-0.398,-0.01 -0.785,-0.061 -1.185,-0.061c-28.315,0 -51.268,23.089 -51.268,51.567c0,28.476 22.953,51.566 51.268,51.566c0.81,0 1.596,-0.087 2.396,-0.121c13.447,24.602 39.447,41.286 69.333,41.286c16.623,-0 32.029,-5.182 44.759,-13.993c16.277,20.467 41.298,33.584 69.379,33.584c26.387,0 50.075,-11.585 66.342,-29.958c12.196,10.823 28.163,17.448 45.708,17.448c34.282,-0 62.659,-25.106 68.149,-58.015c23.804,-4.457 41.836,-25.423 41.836,-50.657c-0,-28.482 -22.951,-51.566 -51.265,-51.566" style="fill:#e7f7fd;fill-rule:nonzero;"/><path d="M817.955,109.861c-9.852,-0 -18.885,3.44 -26,9.156c1.517,-4.363 2.379,-9.028 2.379,-13.908c-0,-23.495 -19.103,-42.542 -42.668,-42.542c-6.837,0 -13.276,1.644 -19.005,4.497c1.59,-4.182 2.501,-8.7 2.501,-13.436c-0,-20.956 -17.04,-37.944 -38.058,-37.944c-19.387,0 -35.356,14.466 -37.721,33.158c-7.004,-2.272 -14.473,-3.516 -22.235,-3.516c-28.555,0 -53.218,16.613 -64.804,40.667c-4.291,-2.639 -9.328,-4.189 -14.739,-4.189c-15.542,0 -28.14,12.56 -28.14,28.057c0,2.477 0.355,4.866 0.958,7.153c-0.322,-0.007 -0.635,-0.049 -0.958,-0.049c-22.905,0 -41.472,18.515 -41.472,41.351c0,22.838 18.567,41.351 41.472,41.351c0.655,-0 1.291,-0.069 1.938,-0.098c10.877,19.728 31.909,33.107 56.084,33.107c13.447,-0 25.909,-4.154 36.207,-11.22c13.167,16.411 33.406,26.931 56.122,26.931c21.344,0 40.506,-9.287 53.665,-24.024c9.865,8.683 22.782,13.991 36.974,13.991c27.731,0 50.686,-20.131 55.127,-46.52c19.255,-3.575 33.841,-20.388 33.841,-40.622c0,-22.836 -18.565,-41.351 -41.468,-41.351" style="fill:#b8e5f8;fill-rule:nonzero;"/><path d="M817.955,94.386c-9.852,-0 -18.885,3.44 -26,9.154c1.517,-4.361 2.379,-9.026 2.379,-13.907c-0,-23.495 -19.103,-42.542 -42.668,-42.542c-6.837,-0 -13.276,1.644 -19.005,4.496c1.59,-4.182 2.501,-8.699 2.501,-13.438c-0,-20.953 -17.04,-37.941 -38.058,-37.941c-19.387,-0 -35.356,14.467 -37.721,33.159c-7.004,-2.274 -14.473,-3.516 -22.235,-3.516c-28.555,-0 -53.218,16.608 -64.804,40.667c-4.291,-2.639 -9.328,-4.191 -14.739,-4.191c-15.542,0 -28.14,12.562 -28.14,28.059c0,2.475 0.355,4.866 0.958,7.152c-0.322,-0.008 -0.635,-0.048 -0.958,-0.048c-22.905,-0 -41.472,18.515 -41.472,41.351c0,22.834 18.567,41.35 41.472,41.35c0.655,0 1.291,-0.07 1.938,-0.097c10.877,19.728 31.909,33.107 56.084,33.107c13.447,-0 25.909,-4.156 36.207,-11.221c13.167,16.412 33.406,26.931 56.122,26.931c21.344,-0 40.506,-9.29 53.665,-24.023c9.865,8.678 22.782,13.991 36.974,13.991c27.731,-0 50.686,-20.132 55.127,-46.522c19.255,-3.574 33.841,-20.386 33.841,-40.621c0,-22.84 -18.565,-41.35 -41.468,-41.35" style="fill:#e7f7fd;fill-rule:nonzero;"/><path d="M909.313,651.774c-9.852,0 -18.885,3.44 -25.999,9.156c1.517,-4.362 2.378,-9.028 2.378,-13.907c0,-23.496 -19.102,-42.542 -42.667,-42.542c-6.837,-0 -13.277,1.643 -19.006,4.496c1.59,-4.182 2.501,-8.7 2.501,-13.435c-0,-20.957 -17.039,-37.944 -38.058,-37.944c-19.387,-0 -35.356,14.466 -37.721,33.157c-7.003,-2.272 -14.472,-3.515 -22.235,-3.515c-28.555,-0 -53.217,16.612 -64.804,40.666c-4.29,-2.638 -9.328,-4.189 -14.739,-4.189c-15.541,0 -28.14,12.56 -28.14,28.057c0,2.477 0.355,4.866 0.958,7.153c-0.322,-0.007 -0.634,-0.048 -0.958,-0.048c-22.904,-0 -41.471,18.514 -41.471,41.35c-0,22.839 18.567,41.351 41.471,41.351c0.655,-0 1.291,-0.069 1.938,-0.097c10.877,19.727 31.91,33.106 56.085,33.106c13.447,0 25.908,-4.154 36.207,-11.22c13.166,16.412 33.406,26.932 56.121,26.932c21.345,-0 40.507,-9.287 53.665,-24.025c9.866,8.683 22.782,13.992 36.974,13.992c27.732,-0 50.686,-20.131 55.127,-46.521c19.256,-3.575 33.842,-20.387 33.842,-40.622c-0,-22.836 -18.566,-41.351 -41.469,-41.351" style="fill:#b8e5f8;fill-rule:nonzero;"/><path d="M909.313,636.299c-9.852,-0 -18.885,3.44 -25.999,9.155c1.517,-4.362 2.378,-9.027 2.378,-13.908c0,-23.494 -19.102,-42.542 -42.667,-42.542c-6.837,0 -13.277,1.645 -19.006,4.497c1.59,-4.182 2.501,-8.699 2.501,-13.439c-0,-20.952 -17.039,-37.941 -38.058,-37.941c-19.387,-0 -35.356,14.467 -37.721,33.159c-7.003,-2.273 -14.472,-3.516 -22.235,-3.516c-28.555,0 -53.217,16.609 -64.804,40.667c-4.29,-2.639 -9.328,-4.19 -14.739,-4.19c-15.541,-0 -28.14,12.561 -28.14,28.058c0,2.476 0.355,4.866 0.958,7.153c-0.322,-0.008 -0.634,-0.049 -0.958,-0.049c-22.904,0 -41.471,18.515 -41.471,41.351c-0,22.834 18.567,41.351 41.471,41.351c0.655,-0 1.291,-0.071 1.938,-0.097c10.877,19.727 31.91,33.106 56.085,33.106c13.447,-0 25.908,-4.155 36.207,-11.22c13.166,16.411 33.406,26.93 56.121,26.93c21.345,0 40.507,-9.29 53.665,-24.023c9.866,8.679 22.782,13.991 36.974,13.991c27.732,0 50.686,-20.132 55.127,-46.521c19.256,-3.574 33.842,-20.386 33.842,-40.621c-0,-22.84 -18.566,-41.351 -41.469,-41.351" style="fill:#e7f7fd;fill-rule:nonzero;"/><path d="M225.371,198.817l458.324,0c25.944,0 47.007,21.063 47.007,47.008l0,423.067c0,25.945 -21.063,47.008 -47.007,47.008l-458.324,0c-38.916,0 -70.511,-31.595 -70.511,-70.511l-0,-376.061c-0,-38.916 31.595,-70.511 70.511,-70.511Z" style="fill:#8a4fff;fill-rule:nonzero;"/><path d="M742.454,715.9l-517.083,0c-38.942,0 -70.511,-31.569 -70.511,-70.511l-0,-376.061c-0,38.943 31.569,70.512 70.511,70.512l517.083,-0c25.962,-0 47.008,21.046 47.008,47.007l-0,282.045c-0,25.962 -21.046,47.008 -47.008,47.008l0,0Z" style="fill:#b996ff;fill-rule:nonzero;"/><path d="M812.965,433.855l0,117.519c0,17.392 -9.401,32.552 -23.503,40.661c-6.934,3.996 -14.926,6.346 -23.504,6.346l-152.775,0c-38.898,0 -70.511,-31.613 -70.511,-70.511c0,-38.899 31.613,-70.512 70.511,-70.512l152.775,0c12.927,0 23.504,-10.576 23.504,-23.503l-0,-40.662c14.102,8.109 23.503,23.268 23.503,40.662Z" style="fill:#e8e8e8;fill-rule:nonzero;"/><path d="M472.161,398.599c-8.661,0 -16.157,4.762 -20.234,11.752l-120.789,-0c-2.318,-0 -4.59,0.688 -6.519,1.974l-32.294,21.53l-137.465,-0l-0,23.503l141.022,0c2.319,0 4.591,-0.688 6.519,-1.974l32.295,-21.529l117.231,-0c4.077,6.99 11.573,11.752 20.234,11.752c12.962,-0 23.503,-10.547 23.503,-23.504c0,-12.957 -10.541,-23.504 -23.503,-23.504Z" style="fill:#e8e8e8;fill-rule:nonzero;"/><path d="M284.131,586.629c-8.662,0 -16.157,4.762 -20.234,11.752l-109.037,0l-0,23.504l109.037,-0c4.077,6.99 11.572,11.752 20.234,11.752c12.962,-0 23.503,-10.547 23.503,-23.504c0,-12.957 -10.541,-23.504 -23.503,-23.504Z" style="fill:#e8e8e8;fill-rule:nonzero;"/><path d="M460.409,563.125c-8.661,0 -16.157,4.762 -20.234,11.752l-58.11,0l-62.679,-47.007l62.03,-0c4.077,6.99 11.572,11.752 20.233,11.752c12.963,-0 23.504,-10.547 23.504,-23.504c0,-12.957 -10.541,-23.504 -23.504,-23.504c-8.661,0 -16.156,4.762 -20.233,11.752l-226.556,-0l-0,23.504l125.351,-0l90.882,68.158c2.037,1.527 4.511,2.353 7.053,2.353l62.029,0c4.077,6.99 11.573,11.752 20.234,11.752c12.963,-0 23.504,-10.547 23.504,-23.504c-0,-12.957 -10.541,-23.504 -23.504,-23.504Z" style="fill:#e8e8e8;fill-rule:nonzero;"/><path d="M660.191,527.87c-0,3.086 -0.301,6.143 -0.903,9.17c-0.603,3.028 -1.494,5.967 -2.675,8.819c-1.182,2.851 -2.63,5.56 -4.344,8.127c-1.715,2.566 -3.664,4.94 -5.846,7.123c-2.183,2.183 -4.557,4.131 -7.124,5.846c-2.566,1.715 -5.275,3.163 -8.127,4.344c-2.851,1.181 -5.791,2.073 -8.818,2.675c-3.027,0.602 -6.084,0.903 -9.171,0.903c-3.086,0 -6.143,-0.301 -9.17,-0.903c-3.028,-0.602 -5.967,-1.494 -8.819,-2.675c-2.851,-1.181 -5.56,-2.629 -8.127,-4.344c-2.566,-1.715 -4.941,-3.663 -7.123,-5.846c-2.183,-2.183 -4.131,-4.557 -5.846,-7.123c-1.715,-2.567 -3.163,-5.276 -4.344,-8.127c-1.181,-2.852 -2.073,-5.791 -2.675,-8.819c-0.602,-3.027 -0.903,-6.084 -0.903,-9.17c-0,-3.087 0.301,-6.144 0.903,-9.171c0.602,-3.027 1.494,-5.967 2.675,-8.818c1.181,-2.852 2.629,-5.561 4.344,-8.127c1.715,-2.567 3.663,-4.941 5.846,-7.124c2.182,-2.182 4.557,-4.131 7.123,-5.846c2.567,-1.714 5.276,-3.162 8.127,-4.344c2.852,-1.181 5.791,-2.072 8.819,-2.675c3.027,-0.602 6.084,-0.903 9.17,-0.903c3.087,0 6.144,0.301 9.171,0.903c3.027,0.603 5.967,1.494 8.818,2.675c2.852,1.182 5.561,2.63 8.127,4.344c2.567,1.715 4.941,3.664 7.124,5.846c2.182,2.183 4.131,4.557 5.846,7.124c1.714,2.566 3.162,5.275 4.344,8.127c1.181,2.851 2.072,5.791 2.675,8.818c0.602,3.027 0.903,6.084 0.903,9.171Z" style="fill:#8a4fff;fill-rule:nonzero;"/><path d="M514.224,12.066c-41.946,6.415 -76.619,38.59 -86.22,79.923c-5.319,22.898 -2.899,44.756 4.798,63.923l-19.401,19.401l0,35.256l-35.255,0l-0,35.256l-23.504,-0l-23.504,23.503l0,47.008l51.04,-0c12.467,-0 24.424,-4.953 33.239,-13.768l84.808,-84.808c16.304,4.94 34.23,6.14 52.872,2.246c42.429,-8.864 75.84,-44.054 82.334,-86.91c10.816,-71.387 -49.804,-131.948 -121.207,-121.03l0,-0Zm40.2,104.488c-12.981,-0 -23.504,-10.523 -23.504,-23.504c0,-12.981 10.523,-23.504 23.504,-23.504c12.98,0 23.504,10.523 23.504,23.504c-0,12.981 -10.524,23.504 -23.504,23.504Z" style="fill:#ffc32d;fill-rule:nonzero;"/><rect x="-0" y="112.685" width="459.754" height="308.61" style="fill-opacity:0;"/><rect x="487.977" y="0" width="370.626" height="248.782" style="fill-opacity:0;"/><rect x="579.335" y="541.913" width="370.626" height="248.782" style="fill-opacity:0;"/><rect x="154.86" y="0" width="658.141" height="717.32" style="fill-opacity:0;"/></g></svg>